<?xml version="1.0" encoding="UTF-8"?>
<svg width="22px" height="18px" viewBox="0 0 22 18" version="1.1" xmlns="http://www.w3.org/2000/svg" xmlns:xlink="http://www.w3.org/1999/xlink">
    <!-- Generator: Sketch 50 (54983) - http://www.bohemiancoding.com/sketch -->
    <title>archive</title>
    <desc>Created with Sketch.</desc>
    <defs></defs>
    <g id="Page-1" stroke="none" stroke-width="1" fill="none" fill-rule="evenodd">
        <g id="Top" transform="translate(-1277.000000, -135.000000)" fill="#E8021E" fill-rule="nonzero">
            <g id="archive" transform="translate(1277.000000, 135.000000)">
                <path d="M15.3766044,0 L6.61872577,0 C6.61872577,0 5.52330356,0 5.52330356,1.0998215 L16.4720266,1.0998215 C16.4720266,0 15.3766044,0 15.3766044,0 Z M18.6617712,3.29946449 C18.6617712,2.199643 17.5674488,2.199643 17.5674488,2.199643 L4.42898117,2.199643 C4.42898117,2.199643 3.33465878,2.199643 3.33465878,3.29946449 L3.33465878,4.39928599 L18.6617712,4.39928599 L18.6617712,3.29946449 Z M20.850416,4.39928599 C20.2037209,3.74819167 20.2037209,3.74819167 20.2037209,3.74819167 L20.2037209,5.49910749 L1.79270904,5.49910749 L1.79270904,3.74819167 C1.79270904,3.74819167 1.79270904,3.74819167 1.14491418,4.39928599 C0.497119317,5.05038032 0.0329946449,5.22415212 0.29365234,6.59892899 C0.553210213,7.96930657 1.81030619,15.4810874 1.99727584,16.4973225 C2.20184264,17.6125415 3.3357586,17.597144 3.3357586,17.597144 L18.662871,17.597144 C18.662871,17.597144 19.7956871,17.6125415 20.0013538,16.4973225 C20.1883234,15.4810874 21.4443196,7.96930657 21.7049773,6.59892899 C21.9634353,5.22415212 21.4993106,5.05038032 20.850416,4.39928599 Z M15.397501,10.9949155 C15.397501,11.6042166 14.9036811,12.0980365 14.29438,12.0980365 L7.70204995,12.0980365 C7.09274884,12.0980365 6.59892899,11.6042166 6.59892899,10.9949155 L6.59892899,8.79857198 L7.69875049,8.79857198 L7.69875049,10.998215 L14.2976795,10.998215 L14.2976795,8.79857198 L15.397501,8.79857198 L15.397501,10.9949155 Z" id="Shape"></path>
            </g>
        </g>
    </g>
</svg>