<?xml version="1.0" encoding="UTF-8"?>
<svg width="21px" height="22px" viewBox="0 0 21 22" version="1.1" xmlns="http://www.w3.org/2000/svg" xmlns:xlink="http://www.w3.org/1999/xlink">
    <!-- Generator: Sketch 50 (54983) - http://www.bohemiancoding.com/sketch -->
    <title>reload</title>
    <desc>Created with Sketch.</desc>
    <defs></defs>
    <g id="Page-1" stroke="none" stroke-width="1" fill="none" fill-rule="evenodd">
        <g id="top2" transform="translate(-176.000000, -635.000000)" fill="#000000" fill-rule="nonzero">
            <g id="reload" transform="translate(187.500000, 645.142954) scale(-1, 1) rotate(-315.000000) translate(-187.500000, -645.142954) translate(175.500000, 634.642954)">
                <path d="M0.108858925,10.2852367 L3.08317431,10.2852367 L3.08317431,10.0281817 C3.21859845,4.46826834 7.7527993,0.00177955326 13.3265058,0.00177955326 C18.9879873,0.00177955326 23.576107,4.60620033 23.576107,10.2852367 C23.576107,15.9642732 18.9879873,20.5661861 13.3265058,20.5661861 C10.946552,20.5661861 8.75594109,19.7511334 7.01549009,18.3868606 L8.77851178,16.500954 C10.0525018,17.4388916 11.6249266,17.9968892 13.3265058,17.9968892 C17.5723034,17.9968892 21.0143337,14.5435736 21.0143337,10.2852367 C21.0143337,6.02689988 17.5723034,2.5735843 13.3265058,2.5735843 C9.16722922,2.5735843 5.78037178,5.88771396 5.64620156,10.0281817 L5.64620156,10.2852367 L8.99669511,10.2852367 L4.61547338,15.1680294 L0.108858925,10.2852367 Z" id="Shape"></path>
            </g>
        </g>
    </g>
</svg>