<svg xmlns="http://www.w3.org/2000/svg" width="178.03625" height="75.81628" viewBox="0 0 178.03625 75.81628"><defs><style>.cls-1{fill:#221815;}</style></defs><title>tips_logo</title><g id="レイヤー_2" data-name="レイヤー 2"><g id="レイヤー_1-2" data-name="レイヤー 1"><polygon class="cls-1" points="0 5.163 20.826 5.163 20.826 61.53 26.592 61.53 26.592 5.163 47.332 5.163 47.332 0 0 0 0 5.163"/><rect class="cls-1" x="63.30975" width="5.33496" height="7.573"/><polyline class="cls-1" points="47.905 17.04 47.905 22.203 63.31 22.203 63.31 56.368 47.905 56.368 47.905 61.531 84.05 61.531 84.05 56.368 68.645 56.368 68.645 17.04 68.645 17.039"/><path class="cls-1" d="M118.20911,16.09229a16.58366,16.58366,0,0,0-15.06,8.606h-.173l.0166-7.65832h-.0166v-.00073L82.25275,17.04v5.163H97.64111V75.81628h5.335v-20.74h.173c3.356,4.906,7.917,7.573,14.715,7.573,11.704,0,18.761-9.638,18.761-23.321C136.62512,24.52631,128.88013,16.09229,118.20911,16.09229Zm-.603,42.082c-10.154,0-15.06-7.745-15.06-18.67395,0-10.585,5.164-18.933,14.974-18.933,8.864,0,13.683,7.746,13.683,18.847C131.20312,49.74127,126.72815,58.17426,117.60614,58.17426Z"/><path class="cls-1" d="M162.63226,36.14362c-8.52-1.979-12.736-3.184-12.736-8.261,0-4.131,3.269-7.401,10.154-7.401,6.627,0,10.585,3.012,11.188,8.778h5.335c-1.032-7.831-5.938-13.167-16.523-13.167-9.122,0-15.49,4.647-15.49,12.048,0,8.606,7.229,10.757,16.265,12.822,9.12194,2.066,11.876,3.701,11.876,8.606,0,5.163-3.873,8.606-11.274,8.606-7.142,0-12.306-3.012-13.081-10.499h-5.421c.516,8.606,6.54,15.06006,18.416,15.06006,10.327,0,16.695-5.336,16.695-13.25306C178.03625,40.27466,171.58221,38.03766,162.63226,36.14362Z"/></g></g></svg>