<svg xmlns="http://www.w3.org/2000/svg" xmlns:xlink="http://www.w3.org/1999/xlink" width="601.76465" height="787.41602" viewBox="0 0 601.76465 787.41602"><defs><style>.cls-1{fill:none;}.cls-2{opacity:0.77;}.cls-3{clip-path:url(#clip-path);}.cls-4{fill:#56b2d8;}.cls-5{clip-path:url(#clip-path-2);}.cls-6{clip-path:url(#clip-path-3);}.cls-7{clip-path:url(#clip-path-4);}.cls-8{clip-path:url(#clip-path-5);}.cls-9{clip-path:url(#clip-path-6);}.cls-10{clip-path:url(#clip-path-7);}.cls-11{clip-path:url(#clip-path-8);}.cls-12{clip-path:url(#clip-path-9);}.cls-13{clip-path:url(#clip-path-10);}</style><clipPath id="clip-path" transform="translate(-0.00012)"><rect class="cls-1" y="8.24506" width="140.1891" height="68.03101"/></clipPath><clipPath id="clip-path-2" transform="translate(-0.00012)"><rect class="cls-1" x="42.0792" y="13.32709" width="68.0319" height="770.98779"/></clipPath><clipPath id="clip-path-3" transform="translate(-0.00012)"><rect class="cls-1" x="152.5731" y="359.77008" width="75.37801" height="410.6818"/></clipPath><clipPath id="clip-path-4" transform="translate(-0.00012)"><rect class="cls-1" x="220.6461" y="0.00006" width="340.83498" height="621.68301"/></clipPath><clipPath id="clip-path-5" transform="translate(-0.00012)"><rect class="cls-1" x="400.05911" y="478.07507" width="172.86996" height="309.3415"/></clipPath><clipPath id="clip-path-6" transform="translate(-0.00012)"><rect class="cls-1" x="256.4641" y="1.68311" width="72.05899" height="774.21217"/></clipPath><clipPath id="clip-path-7" transform="translate(-0.00012)"><rect class="cls-1" x="261.87011" y="6.89105" width="339.89398" height="683.25102"/></clipPath><clipPath id="clip-path-8" transform="translate(-0.00012)"><rect class="cls-1" x="375.08309" y="529.30408" width="68.03201" height="246.4141"/></clipPath><clipPath id="clip-path-9" transform="translate(-0.00012)"><rect class="cls-1" x="482.22311" y="25.86505" width="68.03201" height="246.414"/></clipPath><clipPath id="clip-path-10" transform="translate(-0.00012)"><rect class="cls-1" x="159.9251" y="3.96606" width="68.03099" height="428.90402"/></clipPath></defs><title>tips_tape</title><g id="レイヤー_2" data-name="レイヤー 2"><g id="レイヤー_1-2" data-name="レイヤー 1"><g class="cls-2"><g class="cls-3"><rect class="cls-4" y="8.24463" width="140.18896" height="68.03125"/></g></g><g class="cls-2"><g class="cls-5"><rect class="cls-4" x="42.0791" y="13.32715" width="68.03125" height="770.98828"/></g></g><g class="cls-2"><g class="cls-6"><rect class="cls-4" x="-14.50021" y="531.09582" width="409.52507" height="68.03101" transform="translate(-378.17725 745.18672) rotate(-88.97022)"/></g></g><g class="cls-2"><g class="cls-7"><rect class="cls-4" x="63.46761" y="276.82574" width="655.19294" height="68.03114" transform="translate(-56.82271 532.08996) rotate(-64.76841)"/></g></g><g class="cls-2"><g class="cls-8"><rect class="cls-4" x="333.88" y="598.72987" width="305.22948" height="68.03146" transform="translate(-278.54244 860.25915) rotate(-69.00654)"/></g></g><g class="cls-2"><g class="cls-9"><rect class="cls-4" x="-94.4408" y="354.77334" width="773.8684" height="68.03095" transform="translate(-97.81019 679.25798) rotate(-89.70227)"/></g></g><g class="cls-2"><g class="cls-10"><rect class="cls-4" x="397.80177" y="-7.9351" width="68.03171" height="712.90243" transform="translate(-101.53797 195.34342) rotate(-22.88332)"/></g></g><g class="cls-2"><g class="cls-11"><rect class="cls-4" x="375.08301" y="529.30469" width="68.03125" height="246.41406"/></g></g><g class="cls-2"><g class="cls-12"><rect class="cls-4" x="482.22363" y="25.86475" width="68.03125" height="246.41406"/></g></g><g class="cls-2"><g class="cls-13"><rect class="cls-4" x="159.92529" y="3.96582" width="68.03125" height="428.9043"/></g></g></g></g></svg>